<svg width="48" height="48" viewBox="0 0 48 48" fill="none" xmlns="http://www.w3.org/2000/svg">
<circle cx="24" cy="24" r="24" fill="#D8D8D8"/>
<path d="M22.7143 25.619H15.4524C15.0409 25.619 14.6959 25.4798 14.4176 25.2014C14.1392 24.9231 14 24.5781 14 24.1666C14 23.7551 14.1392 23.4102 14.4176 23.1318C14.6959 22.8534 15.0409 22.7143 15.4524 22.7143H22.7143V15.4524C22.7143 15.0409 22.8534 14.6959 23.1318 14.4176C23.4102 14.1392 23.7551 14 24.1666 14C24.5781 14 24.9231 14.1392 25.2014 14.4176C25.4798 14.6959 25.619 15.0409 25.619 15.4524V22.7143H32.8809C33.2924 22.7143 33.6373 22.8534 33.9157 23.1318C34.1941 23.4102 34.3333 23.7551 34.3333 24.1666C34.3333 24.5781 34.1941 24.9231 33.9157 25.2014C33.6373 25.4798 33.2924 25.619 32.8809 25.619H25.619V32.8809C25.619 33.2924 25.4798 33.6373 25.2014 33.9157C24.9231 34.1941 24.5781 34.3333 24.1666 34.3333C23.7551 34.3333 23.4102 34.1941 23.1318 33.9157C22.8534 33.6373 22.7143 33.2924 22.7143 32.8809V25.619Z" fill="#212121"/>
</svg>
