<svg width="20" height="20" viewBox="0 0 20 20" fill="none" xmlns="http://www.w3.org/2000/svg">
<path fill-rule="evenodd" clip-rule="evenodd" d="M9.99902 20.0002C5.28498 20.0002 2.92796 20.0002 1.46349 18.5358C-0.000976562 17.0713 -0.000976562 14.7143 -0.000976562 10.0002C-0.000976562 5.2862 -0.000976562 2.92918 1.46349 1.46471C2.92796 0.000244141 5.28498 0.000244141 9.99902 0.000244141C14.7131 0.000244141 17.0701 0.000244141 18.5346 1.46471C19.999 2.92918 19.999 5.2862 19.999 10.0002C19.999 14.7143 19.999 17.0713 18.5346 18.5358C17.0701 20.0002 14.7131 20.0002 9.99902 20.0002ZM13.749 10.0002C13.749 10.4145 13.4132 10.7502 12.999 10.7502H6.99902C6.58481 10.7502 6.24902 10.4145 6.24902 10.0002C6.24902 9.58603 6.58481 9.25024 6.99902 9.25024H12.999C13.4132 9.25024 13.749 9.58603 13.749 10.0002Z" fill="#747474"/>
</svg>
